<svg
   width="100"
   height="100"
   version="1.1"
   id="svg8277"
   viewBox="0 0 100 100"
   xmlns="http://www.w3.org/2000/svg"
   xmlns:svg="http://www.w3.org/2000/svg">
  <defs
     id="defs8274" />
  <g
     id="layer1">
    <path
       id="path1477"
       fill="#333" 
       d="m 10.058489,98.303716 c 0.0024,0.790722 1.152446,1.728984 1.782915,1.702354 0.783353,-0.003 24.519734,0.0488 24.887735,0.0488 0.731168,0.0375 1.866566,-1.122328 1.866566,-1.702342 0,-0.672327 0.107946,-94.6527082 0.107946,-95.6856536 0.02867,-1.1796081 -0.558899,-2.40000421 -1.801805,-2.40000421 -1.537004,0 -22.699008,0 -24.673512,0 -1.227345,-3.857e-5 -2.159581,0.99455141 -2.156339,2.43603251 0,1.5100036 -0.01351,94.4348983 -0.01351,95.6007923 1e-6,7e-6 3e-6,1.4e-5 4e-6,2.1e-5 z" />
    <path
       id="path1477-7"
       fill="#333" 
       d="m 60.63024,98.30374 c 0.0024,0.790722 1.152446,1.72899 1.782915,1.70235 0.783353,-0.004 24.519734,0.0487 24.887735,0.0488 0.731168,0.0375 1.866566,-1.122312 1.866566,-1.702326 0,-0.672327 0.107946,-94.6527076 0.107946,-95.6856526 0.02867,-1.179608 -0.558899,-2.40000399 -1.801805,-2.40000399 -1.349504,0 -22.449008,0 -24.673512,0 -1.227345,-3.9e-5 -2.159581,0.99455099 -2.156339,2.43603199 0,1.510004 -0.01351,94.4348976 -0.01351,95.6007916 z" />
  </g>
</svg>
